<svg fill="#A1B5D8" xmlns="http://www.w3.org/2000/svg"  viewBox="0 0 48 48" width="24px" height="24px"><path d="M41.826,40.004c-0.188-0.58-0.726-0.973-1.336-0.978c-3.128-0.018-6.666-1.599-9.542-3.512 c-1.881,0.685-4.736,1.406-6.334,1.472l-0.275,0.011c-0.562,0.023-1.102,0.046-1.629,0.046c-2.092,0-3.997-0.349-6.466-2.367 l-0.22-0.221l-1.207-1.501c-0.52-0.646-0.417-1.59,0.229-2.109c0.645-0.52,1.591-0.417,2.109,0.229l1.106,1.376 c2.133,1.708,3.352,1.658,5.954,1.551l0.276-0.012c0.831-0.034,2.237-0.335,3.558-0.703c-0.956-0.856-1.72-1.689-2.194-2.399 l1.713-1.141c0.429-0.287,0.666-0.787,0.619-1.305c-0.047-0.515-0.372-0.963-0.848-1.17c-0.041-0.018-0.434-0.196-0.959-0.599 c1.185-0.891,1.975-2.433,2.085-4.253C29.065,22.221,29.5,21.664,29.5,21c0-0.828-0.672-1.5-1.5-1.5h-4.339 c0.315-7.23,5.159-12.799,7.565-14.414c0.519-0.35,0.745-0.986,0.562-1.588C31.604,2.901,31.061,2.5,30.431,2.5 c-9.048,0.034-16.481,3.94-20.394,10.717c-2.929,5.07-3.689,11.205-2.087,16.831c1.543,5.427,5.076,9.855,9.947,12.469 c3.636,1.952,7.561,2.983,11.349,2.983c0.002,0,0.004,0,0.006,0c4.384,0,8.555-1.355,12.064-3.92 C41.809,41.219,42.014,40.586,41.826,40.004z M25.466,22.5c-0.121,0.906-0.56,1.596-1.04,1.867 c-0.282-0.514-0.535-1.106-0.725-1.79L23.699,22.5H25.466z M20.87,22.5l0,0.006l1.134,0.004l-0.65,1.971 c0,0-0.012,0.003-0.023,0.007C20.781,25.402,19.947,26,19,26c-1.528,0-2.776-1.53-2.962-3.5H20.87z"/></svg>